<svg xmlns="http://www.w3.org/2000/svg">
    <symbol id="speed_meter" width="48" height="48" viewBox="0 0 24 24">
		<path d="M172.498,70.839C77.159,70.839,0,147.989,0,243.337c0,4.143,3.358,7.5,7.5,7.5c3.327,0,132.584,0,135.105,0
			c3.359,13.381,15.485,23.32,29.893,23.32c14.408,0,26.534-9.939,29.893-23.32c2.501,0,131.682,0,135.105,0
			c4.142,0,7.5-3.357,7.5-7.5C344.996,147.999,267.846,70.839,172.498,70.839z M179.997,86.013L179.997,86.013
			c36.765,1.712,71.235,15.99,98.442,40.776c-13.327,13.327-13.14,13.14-26.362,26.361c-20.03-17.732-45.234-28.203-72.08-29.855
			V86.013z M164.997,86.013v37.282h0.001c-26.423,1.628-51.656,11.796-72.08,29.855c-13.203-13.202-13.024-13.024-26.362-26.361
			C93.763,102.003,128.233,87.725,164.997,86.013z M15.174,235.837c1.712-36.765,15.989-71.235,40.775-98.441l26.362,26.361
			c-17.216,19.459-28.163,44.448-29.856,72.08H15.174z M172.498,259.157c-8.723,0-15.82-7.097-15.82-15.82
			c0-8.724,7.097-15.82,15.82-15.82c8.596,0,15.82,7.117,15.82,15.82C188.318,252.061,181.221,259.157,172.498,259.157z
			 M197.018,224.69c-1.767-2.32-3.631-4.137-5.874-5.872l19.25-13.377L197.018,224.69z M207.538,235.837l38.951-56.052
			c4.752-6.837-3.612-15.186-10.438-10.439l-62.169,43.202c-14.924-0.659-27.784,9.397-31.282,23.289H67.492
			c3.872-55.03,49.599-97.77,105.006-97.77c55.609-0.001,101.154,43.03,105.006,97.77H207.538z M292.54,235.837
			c-1.635-26.782-12.07-51.963-29.856-72.08l26.362-26.361c24.786,27.206,39.064,61.676,40.775,98.441H292.54z"/>
    </symbol>
    <symbol id="calendar" viewBox="0 0 50 50" width="100px" height="100px">
        <path d="M3 9H21M7 3V5M17 3V5M6 12H8M11 12H13M16 12H18M6 15H8M11 15H13M16 15H18M6 18H8M11 18H13M16 18H18M6.2 21H17.8C18.9201 21 19.4802 21 19.908 20.782C20.2843 20.5903 20.5903 20.2843 20.782 19.908C21 19.4802 21 18.9201 21 17.8V8.2C21 7.07989 21 6.51984 20.782 6.09202C20.5903 5.71569 20.2843 5.40973 19.908 5.21799C19.4802 5 18.9201 5 17.8 5H6.2C5.0799 5 4.51984 5 4.09202 5.21799C3.71569 5.40973 3.40973 5.71569 3.21799 6.09202C3 6.51984 3 7.07989 3 8.2V17.8C3 18.9201 3 19.4802 3.21799 19.908C3.40973 20.2843 3.71569 20.5903 4.09202 20.782C4.51984 21 5.07989 21 6.2 21Z" stroke="#000000" stroke-width="2" stroke-linecap="round"/>
    </symbol>
    <symbol id="diagram" width="50" height="50" viewBox="0 0 32 32">
        <path id="primary" d="M19,15v2m-8-4v4m4-6v6M7,9v8M3,3V20a1,1,0,0,0,1,1H21" style="stroke: rgb(0, 0, 0); stroke-linecap: round; stroke-linejoin: round; stroke-width: 1.5;"></path>
    </symbol>
</svg>
