<svg xmlns="http://www.w3.org/2000/svg">
    <symbol id="speed_meter">
<g id="SVGRepo_bgCarrier" stroke-width="0"></g><g id="SVGRepo_tracerCarrier" stroke-linecap="round" stroke-linejoin="round" stroke="#CCCCCC" stroke-width="0.9772000000000001"></g><g id="SVGRepo_iconCarrier"> <g> <g> <path d="M188.5,270.3c-24.4,28.1-23.2,71.7,2.6,98.6c14.4,15.1,33.7,22.6,52.9,22.6c18.8,0,37.5-7.2,51.8-21.5 c6.5-6.5,11.6-14,15.1-21.9l0,0l94.5-183.2c2.5-5.2-2.9-10.6-8.1-8.1l-183.2,94.5l0,0C204.6,255.5,195.9,261.9,188.5,270.3z M221.9,296.1c6.1-6.1,14.1-9.2,22.1-9.2s16,3.1,22.2,9.2c12.2,12.2,12.2,32.1,0,44.3c-6.1,6.1-14.1,9.2-22.2,9.2 c-8,0-16-3.1-22.1-9.2C209.6,328.1,209.6,308.3,221.9,296.1z M440.2,341.4c0-34.6-9.1-68.6-26.4-98.3c-6.7-11.6-2.8-26.4,8.8-33.1 c11.6-6.7,26.4-2.8,33.1,8.8c21.5,37.1,32.9,79.5,32.9,122.6c0,13.4-10.8,24.2-24.2,24.2C451.1,365.6,440.2,354.8,440.2,341.4z M0,341.4C0,206.7,109.6,97.1,244.3,97.1c31.3,0,61.8,5.8,90.6,17.4c12.4,5,18.4,19,13.5,31.4c-5,12.4-19,18.4-31.4,13.5 c-23.1-9.2-47.6-13.9-72.7-13.9c-108,0-195.9,87.9-195.9,195.9c0,13.4-10.8,24.2-24.2,24.2C10.8,365.6,0,354.8,0,341.4z"></path> </g> </g> </g>
    </symbol>
    <symbol id="calendar" viewBox="0 0 50 50" width="100px" height="100px">
        <path d="M3 9H21M7 3V5M17 3V5M6 12H8M11 12H13M16 12H18M6 15H8M11 15H13M16 15H18M6 18H8M11 18H13M16 18H18M6.2 21H17.8C18.9201 21 19.4802 21 19.908 20.782C20.2843 20.5903 20.5903 20.2843 20.782 19.908C21 19.4802 21 18.9201 21 17.8V8.2C21 7.07989 21 6.51984 20.782 6.09202C20.5903 5.71569 20.2843 5.40973 19.908 5.21799C19.4802 5 18.9201 5 17.8 5H6.2C5.0799 5 4.51984 5 4.09202 5.21799C3.71569 5.40973 3.40973 5.71569 3.21799 6.09202C3 6.51984 3 7.07989 3 8.2V17.8C3 18.9201 3 19.4802 3.21799 19.908C3.40973 20.2843 3.71569 20.5903 4.09202 20.782C4.51984 21 5.07989 21 6.2 21Z" stroke="#000000" stroke-width="2" stroke-linecap="round"/>
    </symbol>
    <symbol id="diagram" width="50" height="50" viewBox="0 0 32 32">
        <path id="primary" d="M19,15v2m-8-4v4m4-6v6M7,9v8M3,3V20a1,1,0,0,0,1,1H21" style="stroke: rgb(0, 0, 0); stroke-linecap: round; stroke-linejoin: round; stroke-width: 1.5;"></path>
    </symbol>
</svg>
